<?xml version="1.0" encoding="UTF-8"?>
<svg xmlns="http://www.w3.org/2000/svg" xmlns:xlink="http://www.w3.org/1999/xlink" viewBox="0 0 30.81 28.41">
  <defs>
    <style>
      .cls-1 {
        fill: #fffbf7;
      }

      .cls-2 {
        fill: url(#radial-gradient-2);
      }

      .cls-3 {
        fill: #fff;
      }

      .cls-3, .cls-4, .cls-5, .cls-6 {
        mix-blend-mode: overlay;
      }

      .cls-7 {
        fill: url(#radial-gradient);
      }

      .cls-8 {
        fill: url(#linear-gradient);
      }

      .cls-9 {
        isolation: isolate;
      }

      .cls-10, .cls-11, .cls-12 {
        mix-blend-mode: multiply;
      }

      .cls-4 {
        fill: url(#linear-gradient-2);
      }

      .cls-5 {
        fill: url(#linear-gradient-3);
      }

      .cls-6 {
        fill: url(#linear-gradient-4);
      }

      .cls-11, .cls-13 {
        fill: #ffe3e3;
      }

      .cls-14 {
        fill: maroon;
      }

      .cls-15 {
        fill: #f0a8a8;
      }

      .cls-16 {
        fill: #74fc60;
      }

      .cls-12 {
        fill: #eb0025;
      }

      .cls-17 {
        fill: #b86565;
      }
    </style>
    <radialGradient id="radial-gradient" cx="-365.62" cy="-1001.11" fx="-365.62" fy="-1001.11" r="15.14" gradientTransform="translate(-321.19 1025.32) rotate(39.04)" gradientUnits="userSpaceOnUse">
      <stop offset="0" stop-color="#ff2e2e"/>
      <stop offset=".15" stop-color="#f0292b"/>
      <stop offset=".43" stop-color="#ca1b23"/>
      <stop offset=".82" stop-color="#8d0616"/>
      <stop offset=".93" stop-color="#7a0013"/>
    </radialGradient>
    <linearGradient id="linear-gradient" x1="22.35" y1="17.4" x2="29.91" y2="17.4" gradientUnits="userSpaceOnUse">
      <stop offset="0" stop-color="#623f34"/>
      <stop offset=".26" stop-color="#94614b"/>
      <stop offset=".56" stop-color="#623f34"/>
      <stop offset=".77" stop-color="#94614b"/>
      <stop offset="1" stop-color="#623f34"/>
    </linearGradient>
    <linearGradient id="linear-gradient-2" x1="26.08" y1="18.45" x2="26.65" y2="16.64" gradientUnits="userSpaceOnUse">
      <stop offset="0" stop-color="#fff" stop-opacity="0"/>
      <stop offset="1" stop-color="#ccffc4"/>
    </linearGradient>
    <linearGradient id="linear-gradient-3" x1="-366.18" y1="-992.69" x2="-361.51" y2="-998.19" gradientTransform="translate(-321.19 1025.32) rotate(39.04)" gradientUnits="userSpaceOnUse">
      <stop offset="0" stop-color="#fff" stop-opacity="0"/>
      <stop offset="1" stop-color="#fff"/>
    </linearGradient>
    <radialGradient id="radial-gradient-2" cx="-628.61" cy="373.28" fx="-628.61" fy="373.28" r="11.74" gradientTransform="translate(-650.05 -290.06) rotate(174.31) scale(1 -1)" xlink:href="#radial-gradient"/>
    <linearGradient id="linear-gradient-4" x1="-629.05" y1="379.81" x2="-625.46" y2="375.58" gradientTransform="translate(-650.05 -290.06) rotate(174.31) scale(1 -1)" xlink:href="#linear-gradient-3"/>
  </defs>
  <g class="cls-9">
    <g id="Layer_2" data-name="Layer 2">
      <g id="Layer_1-2" data-name="Layer 1">
        <g>
          <g>
            <path class="cls-1" d="M15.34,26.64c-1.81,0-3.62-.29-5.38-.85-.25-.08-.51-.17-.77-.27-.34-.12-.68-.26-1.03-.42-.68-.05-4.59-.45-5.9-2.77-.1-.16-.18-.34-.25-.53-.02-.06-.04-.12-.06-.19-.57-.39-1.25-1.26-.83-2.54-.52-.61-.99-1.72-.17-2.89-.05-.35-.02-.86.29-1.33.37-.57,1.04-.96,2-1.16-.29-.51-.43-1.17-.03-1.84.51-.85,2.05-1.23,3.09-1.39-.08-.18-.14-.38-.16-.6-.05-.76.8-1.14,1.44-1.33-.04-.34.05-.74.43-1.06.12-.1.47-.4,1.78-.55,0-.09,0-.18.01-.27.06-.33.25-.61.59-.85-.06-.16-.1-.35-.09-.57.02-.47.25-.91.69-1.3.21-.19.47-.36.77-.53.81-.44,1.97-.71,3.09-.98,1.57-.37,3.35-.78,3.62-1.6.04-.13.14-.24.27-.3.06-.03.13-.04.2-.04s.14.01.2.04c.16.07,3.89,1.74,4.71,4.4.29.93.19,1.85-.29,2.76.31.27.83.72,1.54,1.3.32.27.68.56,1.07.87.92.73,1.53,1.45,1.88,2.19,0,.01.01.02.02.04.54,1.17.42,2.42-.34,3.72,1.46,1.24,3.4,3.86,2.15,6.64-1.17,2.6-4.58,4.15-9.12,4.15-.82,0-1.65-.05-2.46-.15l-.35-.05c-.29.06-1.24.23-2.61.23h0Z"/>
            <path class="cls-17" d="M18.95,1s3.67,1.62,4.43,4.09c.25.82.18,1.74-.45,2.72,0,0,.69.62,1.86,1.59.32.27.69.56,1.08.88.77.61,1.41,1.28,1.76,2.05,0,0,0,0,0,0,.47,1.02.42,2.2-.55,3.62,0,0,3.91,2.87,2.35,6.32-1.24,2.74-4.93,3.86-8.66,3.86-.81,0-1.61-.05-2.4-.15-.15-.02-.29-.04-.44-.06,0,0-.99.24-2.59.24-1.38,0-3.2-.17-5.23-.82-.25-.08-.5-.16-.75-.26-.36-.13-.72-.28-1.08-.44,0,0-4.3-.24-5.59-2.53-.08-.14-.15-.29-.21-.45-.04-.11-.07-.23-.1-.35,0,0-1.38-.7-.72-2.27,0-.02.02-.04.03-.06,0,0-1.4-1.22-.22-2.65,0,0-.68-1.97,2.71-2.24,0,0-1.18-.92-.56-1.95.62-1.03,3.64-1.26,3.64-1.26,0,0-.59-.37-.64-1.02-.05-.65,1.59-.92,1.59-.92,0,0-.4-.61.11-1.05.33-.28,1.15-.4,1.68-.45,0,0,0,0,0,0,0,0,0,0,0,0,0,0,0,0,0,0,.29-.03.5-.03.5-.03,0,0-.81-.77.54-1.37,0,0-.75-.79.26-1.69.17-.15.39-.31.68-.46,1.96-1.07,6.37-1.1,6.95-2.86M18.95,0c-.14,0-.28.03-.4.09-.26.11-.45.33-.54.6-.18.55-2.11,1-3.26,1.27-1.16.27-2.35.55-3.22,1.02-.33.18-.62.38-.86.59-.68.61-.85,1.24-.86,1.66,0,.15,0,.28.02.41-.3.29-.44.6-.5.86-1,.16-1.41.42-1.64.61-.36.3-.54.68-.59,1.07-.97.36-1.5.98-1.45,1.73,0,.06.01.11.02.17-1.09.23-2.37.67-2.88,1.53-.35.59-.39,1.21-.23,1.77-.79.26-1.36.66-1.73,1.22-.35.54-.41,1.08-.39,1.47-.73,1.17-.42,2.35.14,3.13-.29,1.24.29,2.21.95,2.73,0,.02.01.04.02.06.07.21.17.41.29.62,1.39,2.46,5.22,2.93,6.21,3.01.33.14.66.28.98.4.26.1.53.19.79.27,1.8.58,3.66.87,5.53.87,1.29,0,2.23-.15,2.62-.22.09.01.17.02.26.03.86.11,1.71.16,2.55.16,4.74,0,8.32-1.66,9.58-4.45,1.43-3.16-.77-5.8-1.98-6.94.67-1.32.73-2.61.17-3.83,0-.02-.02-.03-.02-.05-.38-.81-1.05-1.58-2.02-2.36-.38-.31-.74-.6-1.06-.86-.51-.42-.94-.78-1.24-1.05.38-.91.44-1.86.15-2.78C23.47,1.97,19.77.27,19.35.09c-.13-.06-.27-.09-.4-.09h0Z"/>
          </g>
          <g class="cls-10">
            <path class="cls-13" d="M10,7.41s0,0,0,0c.34.3.9.62,1.77.74,0,0,1.35,2.04,5.21,1.55,0,0,2.32,1.83,4.95-.13,0,0,1.67.48,2.85-.18-1.16-.96-1.86-1.59-1.86-1.59.63-.98.7-1.9.45-2.72-.22.82-.69,2.03-1.58,2.69-1.44,1.06-.43-1.82-1.67-3.9,0,0-.63,3.09-3.03,3.85-2.4.75.26-1.11,1.5-4.67,0,0-2.34,2.99-4.5,2.9-1.58-.06-2.57-.75-2.79-1.63-1.01.9-.26,1.69-.26,1.69-1.35.6-.54,1.37-.54,1.37,0,0-.21,0-.5.03,0,0,0,0,0,0Z"/>
          </g>
          <path class="cls-11" d="M1.69,18.96s-.02.04-.03.06c5.39,2.22,11.62,1.13,11.62,1.13-4.11,1.41-8.67,1.52-10.81,1.49.05.16.12.31.21.45,9.43,2.88,17.73-2.2,17.96-2.35-3.7,4.14-8.78,5.1-11.28,5.31.25.1.5.18.75.26,12.76.66,15.71-7.86,15.71-7.86,0,0,2.81,2.89-.61,5.29-2.03,1.43-4.87,2.54-6.85,3.22,4.43.56,9.56-.38,11.06-3.71,1.56-3.44-2.36-6.32-2.36-6.32.97-1.42,1.02-2.6.55-3.62,0,0,0,0,0,0-1.33-1.47-3.75-1.91-3.75-1.91,0,0,3.33,2.92-.19,5.96-3.52,3.04-10.21,2.68-10.21,2.68,4.5-.45,6.78-3.49,6.91-3.68-2.8,2.6-7.41,3.49-11.89,2.99-4.48-.5-4.7-2.76-.86-2.56,3.84.2,7.04-1.95,7.04-1.95,0,0-4.15.97-6.52.29-2.36-.68-3.17-1.91.59-1.86,3.64.04,5.03-1.49,5.11-1.59-.51.41-1.87.62-3.83.31-1.96-.31-3.64-1.71-1.55-1.5,2.02.2,4.22-.25,4.36-.27-.15,0-2.35.15-3.07-.52-.54-.5-.06-1.03.24-1.28,0,0,0,0,0,0,0,0,0,0,0,0-.54.05-1.35.17-1.68.45-.51.43-.11,1.05-.11,1.05,0,0-1.63.27-1.59.92.05.65.64,1.02.64,1.02,0,0-3.02.23-3.64,1.26-.62,1.03.56,1.95.56,1.95-3.4.27-2.71,2.24-2.71,2.24-1.18,1.43.22,2.65.22,2.65Z"/>
          <g>
            <path class="cls-15" d="M11.66,7.84c1.84-.05,3.61-.85,4.87-2.12.64-.63,1.18-1.36,1.57-2.16.38-.8.61-1.7.61-2.54v-.03c0-.13.11-.24.24-.24.06,0,.12.02.16.06l.94.82c.28.3.57.61.84.93.5.67.95,1.4,1.15,2.23.2.82.19,1.69-.05,2.49-.25.79-.68,1.53-1.26,2.1,1.02-1.27,1.43-2.99.96-4.49-.24-.75-.66-1.42-1.15-2.05-.26-.3-.54-.58-.82-.87l-.92-.77.39-.21c.03,1.01-.27,1.92-.68,2.78-.43.85-1.01,1.62-1.71,2.25-.7.63-1.52,1.14-2.4,1.46-.88.31-1.83.47-2.75.37Z"/>
            <path class="cls-15" d="M17.74,9.03c1.08-1.07,1.93-2.35,2.13-3.79.1-.71.09-1.44-.11-2.15-.16-.72-.49-1.39-.81-2.09.24.3.47.6.69.93.16.35.39.68.49,1.06.3.73.34,1.56.24,2.34-.12.79-.44,1.54-.91,2.17-.47.63-1.04,1.17-1.71,1.54Z"/>
            <path class="cls-15" d="M17.53,10.9c.14.62-.1,1.29-.5,1.8-.43.5-1,.85-1.59,1.09-1.2.49-2.5.57-3.74.68-1.26.06-2.51.1-3.77.04-1.25-.07-2.51-.18-3.74-.44,1.25.06,2.5.07,3.75.06,1.25-.02,2.49-.05,3.73-.15,1.24-.07,2.48-.16,3.64-.54.57-.19,1.12-.48,1.55-.9.42-.42.71-1.01.68-1.64Z"/>
            <path class="cls-15" d="M21.88,12.4c-.07.98-.52,1.92-1.12,2.71-.62.79-1.41,1.42-2.27,1.92-1.75.98-3.74,1.39-5.69,1.61-1.96.18-3.95.19-5.91-.14-.97-.16-1.93-.41-2.86-.74-.91-.36-1.85-.75-2.55-1.44.77.6,1.71.94,2.63,1.21.93.28,1.88.48,2.84.59,1.92.24,3.87.24,5.8.02,1.93-.18,3.84-.59,5.56-1.45,1.68-.87,3.18-2.34,3.57-4.29Z"/>
            <path class="cls-15" d="M25.9,13.8c-.49,1.04-1.24,1.96-2.12,2.72-.88.77-1.9,1.35-2.98,1.8-1.09.41-2.22.7-3.38.82-.57.07-1.15.06-1.73.1-.58-.03-1.15-.06-1.72-.12l1.71-.13c.56-.08,1.13-.11,1.68-.23,1.11-.2,2.2-.49,3.24-.9,2.07-.84,3.96-2.18,5.28-4.06Z"/>
            <path class="cls-15" d="M14.79,9.55c-.1.7-.69,1.28-1.35,1.55-.68.3-1.41.29-2.09.3-.69-.01-1.38-.05-2.06-.14-.68-.09-1.36-.2-2.02-.39,1.38-.03,2.73.03,4.08.03.68,0,1.34.02,1.96-.16.61-.17,1.18-.57,1.48-1.19Z"/>
            <path class="cls-15" d="M26.78,20.77c-.26.87-.88,1.6-1.55,2.2-.68.61-1.46,1.1-2.27,1.5-.81.4-1.67.71-2.53.96l-1.31.31c-.45.06-.89.14-1.33.19l2.53-.87c.82-.33,1.65-.64,2.43-1.04.79-.37,1.54-.83,2.25-1.35.69-.53,1.35-1.13,1.8-1.91Z"/>
            <path class="cls-15" d="M15.54,24.35c-.54.31-1.15.48-1.76.61-.61.13-1.23.18-1.85.2-.62,0-1.24-.03-1.85-.12-.61-.09-1.22-.22-1.8-.42,1.24,0,2.44.07,3.65.04,1.21-.02,2.4-.09,3.62-.31Z"/>
            <path class="cls-15" d="M12.71,21.07c-.78.42-1.64.66-2.5.84-.87.18-1.75.26-2.64.27-.88-.01-1.77-.05-2.64-.22-.87-.14-1.72-.37-2.55-.67.88.1,1.73.22,2.6.29.86.07,1.73.1,2.59.1,1.72-.02,3.44-.18,5.14-.61Z"/>
            <path class="cls-15" d="M6.03,19.94c-.76.14-1.52.08-2.26-.07-.73-.17-1.47-.43-2.07-.91.38.06.74.14,1.1.21l1.08.22c.72.16,1.43.31,2.16.56Z"/>
          </g>
        </g>
        <g>
          <g>
            <g>
              <g>
                <path class="cls-7" d="M20.66,27.35c-.68,0-1.36-.12-2.01-.35-.83-.29-1.6-.77-2.29-1.41-.89-.84-1.53-1.81-1.83-2.81-.62-1.98,0-4,1.72-5.7,1.01-1,2.07-1.5,3.15-1.5,1.57,0,3.05,1.13,3.96,3.01l.06.06c.14.16.58.66,1.71,1.72.64.6.95,1.3.96,2.07,0,1.14-.64,2.4-1.81,3.53-.91.88-2.23,1.38-3.61,1.38Z"/>
                <path class="cls-14" d="M19.4,15.75c1.59,0,2.97,1.19,3.8,2.91,0,0,.02.03.08.1.17.2.65.72,1.73,1.73.02.02.03.03.05.05,1.5,1.4.91,3.54-.91,5.29-.88.85-2.14,1.33-3.49,1.33-.64,0-1.3-.11-1.95-.34-.78-.27-1.54-.73-2.23-1.38-.87-.82-1.48-1.75-1.79-2.74-.57-1.8-.1-3.77,1.68-5.52,1.03-1.02,2.07-1.45,3.03-1.45M19.4,15.4c-1.13,0-2.23.52-3.28,1.55-1.78,1.75-2.41,3.83-1.77,5.88.32,1.04.95,2.02,1.88,2.89.71.66,1.5,1.15,2.36,1.45.67.24,1.37.36,2.07.36,1.43,0,2.79-.52,3.74-1.43,1.21-1.17,1.88-2.47,1.87-3.66,0-.82-.34-1.57-.96-2.15l-.29.22.25-.25c-1.13-1.07-1.58-1.56-1.72-1.72l-.05-.06c-.94-1.93-2.47-3.08-4.1-3.08h0Z"/>
              </g>
              <path class="cls-12" d="M20.18,20.22c-2.09.27-4.98,3.63-1.47,6.61-.78-.27-1.54-.73-2.23-1.38-.87-.82-1.48-1.75-1.79-2.74-.03-.08-.05-.16-.07-.24-.45-1.74.05-3.61,1.74-5.27,2.11-2.08,4.24-1.72,5.7-.19h0c.44.46.81,1.02,1.12,1.65,0,0,.02.03.08.1.17.2.65.72,1.73,1.73.17.53.23,1.06,0,1.42-.64,1-2.43-2.01-4.82-1.7Z"/>
              <path class="cls-12" d="M17.49,18.3c-1.87,1.52-2.59,3.08-2.86,4.18-.45-1.74.05-3.61,1.74-5.27,2.11-2.08,4.24-1.72,5.7-.19-1.14-.26-2.78-.19-4.58,1.28Z"/>
              <path class="cls-3" d="M24.15,25.84c-1.81,1.75-5.2,1.94-7.67-.38-.87-.82-1.48-1.75-1.79-2.74,4.04,6.73,9.09,3.49,10.19,1.7,1.11-1.79.6-3.22-.29-3.96-.88-.73-1.29-1.35-1.29-1.35l-.03-.35c.17.2.66.73,1.78,1.79,1.5,1.4.91,3.54-.91,5.29Z"/>
              <g>
                <path class="cls-16" d="M22.54,19.74s-.32-5.1,2.38-5.15,2.11,2.55,2.11,2.55c0,0,1.96-.36,2.56.75s-.79,2.32-.79,2.32c0,0,.39-1.21-.25-1.89s-2.63.24-2.63.24c0,0,.61-1.49-.64-1.99s-2.73,3.16-2.73,3.16Z"/>
                <path class="cls-8" d="M22.54,19.75c-.12-.88-.08-1.72.05-2.58.16-.83.42-1.73,1.15-2.34.37-.28.85-.42,1.29-.39.44,0,.89.11,1.28.34.39.24.66.64.76,1.07.1.43.1.87.02,1.3l-.07-.07c.46-.06.92-.08,1.38,0,.45.07.94.27,1.21.69.29.4.28.96.1,1.4-.18.44-.47.82-.81,1.16-.06.06-.15.05-.2,0-.04-.04-.05-.09-.04-.14v-.02c.1-.35.13-.75.07-1.1-.06-.35-.27-.69-.56-.76-.32-.09-.71-.03-1.08.06-.37.09-.74.22-1.09.37-.1.04-.21,0-.25-.1-.02-.05-.02-.1,0-.14.18-.47.22-1.07-.08-1.44-.14-.17-.4-.34-.59-.36-.21-.02-.45.11-.66.27-.41.35-.74.82-1.03,1.29-.3.49-.55.96-.83,1.5ZM22.54,19.72c.16-.51.4-1.06.67-1.55.28-.5.58-1,1.01-1.41.22-.19.5-.4.86-.39.37.04.62.21.85.46.43.55.35,1.24.15,1.81l-.25-.24c.38-.17.75-.31,1.16-.4.4-.09.82-.16,1.27-.03.49.15.72.63.79,1.04.07.43.01.84-.11,1.25l-.23-.15c.32-.28.61-.64.79-1.03.17-.39.21-.85-.03-1.21-.22-.37-.65-.57-1.08-.65-.43-.09-.9-.09-1.34-.01-.03,0-.06-.02-.07-.05v-.02c.16-.8-.04-1.77-.78-2.14-.35-.18-.76-.25-1.17-.24-.4-.02-.79.11-1.09.35-.63.49-.91,1.33-1.1,2.13-.18.81-.25,1.68-.29,2.5Z"/>
              </g>
              <path class="cls-4" d="M22.87,17.77s.33-2.87,2.19-2.74,1.57,2.51,1.57,2.51c0,0,1.93-.5,2.51.2s.15,1.6.15,1.6c0,0,.33-.85-.66-1.33s-2.41.1-2.41.1c0,0,.38-1.07-.64-1.73s-1.98.57-1.98.57"/>
              <path class="cls-5" d="M19.06,20.83s1.37-.93,3.05-.07c1.68.87,2.86,2.45,3.12.71,0,0,.69,1.66-.93,3.38s-3.83,1.82-5.24,1.53"/>
              <g>
                <ellipse class="cls-3" cx="24.7" cy="23.16" rx=".78" ry=".36" transform="translate(-6.8 35.6) rotate(-64.72)"/>
                <ellipse class="cls-3" cx="23.92" cy="23.54" rx=".47" ry=".22" transform="translate(-7.58 35.11) rotate(-64.72)"/>
              </g>
            </g>
            <path class="cls-14" d="M21.38,17.64c.34.71.74,1.36,1.3,1.86.53.53,1.21.87,1.94,1.19-.4-.03-.79-.11-1.16-.27-.38-.15-.71-.4-1.02-.66-.58-.57-1.01-1.32-1.06-2.12Z"/>
          </g>
          <g>
            <g>
              <g>
                <path class="cls-2" d="M13.94,28.23c-.4,0-.79-.05-1.17-.14-1.61-.39-2.87-1.6-3.2-3.07-.28-1.23-.16-2.32.33-3.06.33-.5.84-.82,1.46-.93,1.22-.21,1.72-.34,1.88-.39.82-.47,1.62-.71,2.35-.71,1.5,0,2.58,1.01,2.96,2.76.4,1.83-.07,3.4-1.32,4.42-.63.52-1.43.87-2.38,1.04-.31.05-.61.08-.91.08Z"/>
                <path class="cls-14" d="M15.59,20.11c1.28,0,2.38.77,2.78,2.62.4,1.87-.13,3.33-1.25,4.24-.61.5-1.4.84-2.3,1-.3.05-.6.08-.88.08-.39,0-.77-.05-1.13-.14-1.59-.39-2.76-1.57-3.07-2.93-.43-1.89.1-3.51,1.65-3.77.02,0,.04,0,.06-.01,1.12-.2,1.65-.33,1.84-.38.06-.02.09-.03.09-.03.73-.43,1.5-.68,2.21-.68M15.59,19.75c-.76,0-1.57.24-2.36.71l-.05.02c-.15.04-.64.17-1.8.37v.36s-.06-.35-.06-.35c-.67.12-1.22.46-1.58,1.01-.52.78-.65,1.92-.36,3.2.35,1.54,1.65,2.79,3.33,3.2.39.1.8.15,1.21.15.31,0,.63-.03.94-.08.98-.17,1.81-.53,2.47-1.08,1.3-1.06,1.79-2.69,1.38-4.6-.4-1.85-1.54-2.9-3.13-2.9h0Z"/>
              </g>
              <path class="cls-12" d="M14.66,23.05c1.23,1.05,1.66,4.43-1.85,4.86.62.15,1.29.18,2.01.06.9-.16,1.69-.5,2.3-1,.05-.04.1-.08.15-.13,1.02-.92,1.49-2.33,1.11-4.12-.48-2.22-1.99-2.89-3.58-2.53h0c-.47.11-.95.31-1.41.58,0,0-.03,0-.09.03-.19.06-.72.19-1.84.38-.33.27-.59.59-.6.91-.01.91,2.41-.27,3.81.94Z"/>
              <path class="cls-12" d="M17.2,22.96c.55,1.77.36,3.07.07,3.89,1.02-.92,1.49-2.33,1.11-4.12-.48-2.22-1.99-2.89-3.58-2.53.84.32,1.86,1.05,2.4,2.75Z"/>
              <path class="cls-3" d="M9.74,24.98c.43,1.89,2.52,3.44,5.08,2.99.9-.16,1.69-.5,2.3-1-5.43,2.61-7.3-1.6-7.25-3.21.05-1.62.97-2.31,1.86-2.41.87-.1,1.4-.32,1.4-.32l.17-.21c-.2.06-.73.19-1.9.39-1.55.27-2.08,1.89-1.65,3.77Z"/>
              <path class="cls-6" d="M15.12,23.92s-.48-1.18-1.92-1.33-2.87.37-2.3-.86c0,0-1.14.78-.83,2.56.31,1.78,1.69,2.78,2.71,3.19"/>
              <g>
                <ellipse class="cls-3" cx="10.52" cy="23.04" rx=".6" ry=".27" transform="translate(-13.76 30.23) rotate(-81.93)"/>
                <ellipse class="cls-3" cx="10.87" cy="23.61" rx=".36" ry=".17" transform="translate(-14.03 31.05) rotate(-81.93)"/>
              </g>
            </g>
            <path class="cls-14" d="M14.98,20.9c-.37.49-.96.8-1.57.91-.31.04-.63.06-.93,0-.31-.05-.6-.17-.86-.32.6.1,1.18.17,1.75.05.29-.03.56-.13.83-.23.27-.11.54-.24.79-.41Z"/>
          </g>
        </g>
      </g>
    </g>
  </g>
</svg>