<?xml version="1.0" encoding="UTF-8"?>
<svg id="Layer_2" data-name="Layer 2" xmlns="http://www.w3.org/2000/svg" xmlns:xlink="http://www.w3.org/1999/xlink" viewBox="0 0 24.33 23.43">
  <defs>
    <style>
      .cls-1 {
        fill: none;
      }

      .cls-2 {
        fill: url(#linear-gradient-8);
      }

      .cls-3 {
        fill: url(#linear-gradient-7);
      }

      .cls-4 {
        fill: url(#linear-gradient-5);
      }

      .cls-5 {
        fill: url(#linear-gradient-6);
      }

      .cls-6 {
        fill: url(#linear-gradient-4);
      }

      .cls-7 {
        fill: url(#linear-gradient-3);
      }

      .cls-8 {
        fill: url(#linear-gradient-2);
      }

      .cls-9 {
        fill: url(#linear-gradient);
      }

      .cls-10 {
        clip-path: url(#clippath);
      }
    </style>
    <clipPath id="clippath">
      <rect class="cls-1" width="24.33" height="23.43"/>
    </clipPath>
    <linearGradient id="linear-gradient" x1="5.23" y1="7.54" x2="5.19" y2="19.6" gradientUnits="userSpaceOnUse">
      <stop offset="0" stop-color="#97fc88"/>
      <stop offset="1" stop-color="#97fc88"/>
    </linearGradient>
    <linearGradient id="linear-gradient-2" x1="1.38" y1="12.74" x2="9.01" y2="12.74" gradientUnits="userSpaceOnUse">
      <stop offset="0" stop-color="#623f34"/>
      <stop offset=".26" stop-color="#94614b"/>
      <stop offset=".56" stop-color="#623f34"/>
      <stop offset=".77" stop-color="#94614b"/>
      <stop offset="1" stop-color="#623f34"/>
    </linearGradient>
    <linearGradient id="linear-gradient-3" x1="16.65" y1="7.08" x2="16.62" y2="16.28" xlink:href="#linear-gradient"/>
    <linearGradient id="linear-gradient-4" x1="12.99" y1="11.05" x2="20.26" y2="11.05" xlink:href="#linear-gradient-2"/>
    <linearGradient id="linear-gradient-5" x1="13.36" y1="19.79" x2="13.35" y2="22.06" xlink:href="#linear-gradient"/>
    <linearGradient id="linear-gradient-6" x1="11.1" y1="20.77" x2="15.62" y2="20.77" xlink:href="#linear-gradient-2"/>
    <linearGradient id="linear-gradient-7" x1="4.95" y1="5.49" x2="4.9" y2="19.69" xlink:href="#linear-gradient"/>
    <linearGradient id="linear-gradient-8" x1="16.1" y1="5.26" x2="16.07" y2="16.36" xlink:href="#linear-gradient"/>
  </defs>
  <g id="Layer_1-2" data-name="Layer 1">
    <g class="cls-10">
      <g>
        <g>
          <path class="cls-9" d="M5.2,19.06s0,0,0,0c-1.91,0-2.71-1.11-2.13-2.54,1.09-3.35,1.01-6.87.17-10.1h3.93c-.85,3.23-.92,6.75.17,10.1.58,1.43-.22,2.54-2.13,2.54Z"/>
          <path class="cls-8" d="M7.16,6.42c-.85,3.23-.92,6.75.17,10.1.58,1.43-.22,2.54-2.13,2.54h0,0,0c-1.91,0-2.7-1.11-2.13-2.54,1.09-3.35,1.01-6.87.17-10.1h3.93M7.16,4.92h-3.93c-.46,0-.9.22-1.19.58-.28.37-.38.85-.26,1.3.83,3.17.79,6.36-.13,9.21-.43,1.11-.35,2.2.23,3.06.65.96,1.82,1.49,3.31,1.49s2.66-.53,3.31-1.49c.58-.86.66-1.95.23-3.06-.92-2.85-.96-6.04-.13-9.21.12-.45.02-.93-.26-1.3-.28-.37-.72-.58-1.19-.58h0ZM7.16,7.92h0,0Z"/>
        </g>
        <g>
          <path class="cls-7" d="M16.62,15.87h0c-1.78,0-2.48-1.03-1.97-2.36.74-2.43.71-4.95.15-7.28,1.21,0,2.43,0,3.64,0-.56,2.33-.59,4.85.15,7.28.51,1.33-.19,2.36-1.97,2.36Z"/>
          <path class="cls-6" d="M18.44,6.23c-.56,2.33-.59,4.85.15,7.28.51,1.33-.19,2.36-1.97,2.36h0c-1.78,0-2.48-1.03-1.97-2.36.74-2.43.71-4.95.15-7.28.61,0,1.21,0,1.82,0s1.21,0,1.82,0M18.44,4.73h-1.82s-1.82,0-1.82,0c-.46,0-.89.21-1.18.57s-.39.83-.28,1.28c.53,2.21.49,4.44-.11,6.44-.4,1.08-.31,2.12.26,2.94.36.52,1.24,1.4,3.13,1.4s2.77-.88,3.13-1.4c.57-.82.66-1.87.26-2.94-.61-2.01-.64-4.23-.11-6.44.11-.45,0-.92-.28-1.28-.28-.36-.72-.57-1.18-.57h0ZM18.44,7.73h0,0Z"/>
        </g>
        <g>
          <circle class="cls-4" cx="13.36" cy="20.77" r="1.19"/>
          <path class="cls-5" d="M13.36,19.57c.66,0,1.19.53,1.19,1.19s-.53,1.19-1.19,1.19-1.19-.53-1.19-1.19.53-1.19,1.19-1.19M13.36,18.51c-1.25,0-2.26,1.01-2.26,2.26s1.01,2.26,2.26,2.26,2.26-1.01,2.26-2.26-1.01-2.26-2.26-2.26h0Z"/>
        </g>
      </g>
      <path class="cls-3" d="M8.15,4.97c-.48-.16-4.61-1.13-5.28-.7S.75,6.02.73,6.58l.93,1.4s1.55-.22,1.9,1.22c.22.92.29,2.03.3,2.73-.05,1.54-.3,3.09-.79,4.6-.58,1.43.22,2.54,2.13,2.54,1.91,0,2.71-1.11,2.13-2.54-.5-1.55-.75-3.14-.79-4.72.06-1.25.64-3.55,1.84-3.84,1.64-.4.25-2.83-.23-2.99Z"/>
      <path class="cls-2" d="M20.09,4.81c-.36-.34-3.73-.68-4.42-.55-.69.13-3.25.67-3.55,1.26-.3.59.17,1.53.17,1.53l1.41.93s.5-.14.97.46c.42.55.53,2.05.38,3.42-.09.55-.21,1.11-.38,1.65-.51,1.33.19,2.36,1.97,2.36,1.78,0,2.48-1.03,1.97-2.36-.11-.35-.2-.71-.27-1.07-.06-.51-.22-2.18,0-3.18.26-1.19,1.45-1.32,1.45-1.32,0,0,.68-2.78.32-3.13Z"/>
    </g>
  </g>
</svg>