<?xml version="1.0" encoding="UTF-8"?>
<svg xmlns="http://www.w3.org/2000/svg" xmlns:xlink="http://www.w3.org/1999/xlink" viewBox="0 0 36.91 37.17">
  <defs>
    <style>
      .cls-1 {
        fill: #ededed;
        mix-blend-mode: overlay;
      }

      .cls-2 {
        fill: url(#radial-gradient-5);
      }

      .cls-3 {
        fill: url(#radial-gradient-4);
      }

      .cls-4 {
        fill: url(#radial-gradient-3);
      }

      .cls-5 {
        fill: url(#radial-gradient-2);
      }

      .cls-6 {
        fill: url(#linear-gradient-2);
      }

      .cls-6, .cls-7, .cls-8, .cls-9, .cls-10 {
        mix-blend-mode: multiply;
      }

      .cls-7 {
        fill: url(#linear-gradient-3);
      }

      .cls-8 {
        fill: url(#linear-gradient-4);
      }

      .cls-9 {
        fill: url(#linear-gradient-5);
      }

      .cls-11 {
        fill: url(#radial-gradient);
      }

      .cls-12 {
        isolation: isolate;
      }

      .cls-13 {
        fill: #54080c;
      }

      .cls-10 {
        fill: url(#linear-gradient);
      }
    </style>
    <radialGradient id="radial-gradient" cx="-2663.41" cy="26.31" fx="-2663.41" fy="26.31" r="15.26" gradientTransform="translate(-2630.62) rotate(-180) scale(1 -1)" gradientUnits="userSpaceOnUse">
      <stop offset="0" stop-color="#ed292f"/>
      <stop offset="1" stop-color="#b01318"/>
    </radialGradient>
    <linearGradient id="linear-gradient" x1="-2658.36" y1="20.57" x2="-2649.57" y2="21.93" gradientTransform="translate(-2630.62) rotate(-180) scale(1 -1)" gradientUnits="userSpaceOnUse">
      <stop offset="0" stop-color="#981616"/>
      <stop offset="1" stop-color="#981616" stop-opacity="0"/>
    </linearGradient>
    <radialGradient id="radial-gradient-2" cx="-2660.18" cy="7.05" fx="-2660.18" fy="7.05" r="12.84" xlink:href="#radial-gradient"/>
    <linearGradient id="linear-gradient-2" x1="-2658.43" y1="10.21" x2="-2653.08" y2="14.88" xlink:href="#linear-gradient"/>
    <radialGradient id="radial-gradient-3" cx="4.12" cy="26.31" fx="4.12" fy="26.31" r="15.26" gradientTransform="matrix(1,0,0,1,0,0)" xlink:href="#radial-gradient"/>
    <linearGradient id="linear-gradient-3" x1="9.17" y1="20.57" x2="17.96" y2="21.93" gradientTransform="matrix(1,0,0,1,0,0)" xlink:href="#linear-gradient"/>
    <radialGradient id="radial-gradient-4" cx="7.35" cy="7.05" fx="7.35" fy="7.05" r="12.84" gradientTransform="matrix(1,0,0,1,0,0)" xlink:href="#radial-gradient"/>
    <linearGradient id="linear-gradient-4" x1="9.1" y1="10.21" x2="14.45" y2="14.88" gradientTransform="matrix(1,0,0,1,0,0)" xlink:href="#linear-gradient"/>
    <radialGradient id="radial-gradient-5" cx="18.55" cy="1.04" fx="18.55" fy="1.04" r="10.02" gradientTransform="matrix(1,0,0,1,0,0)" xlink:href="#radial-gradient"/>
    <linearGradient id="linear-gradient-5" x1="18.59" y1="4.58" x2="18.78" y2="8.11" gradientTransform="matrix(1,0,0,1,0,0)" xlink:href="#linear-gradient"/>
  </defs>
  <g class="cls-12">
    <g id="Layer_2" data-name="Layer 2">
      <g id="Layer_1-2" data-name="Layer 1">
        <g>
          <g>
            <g>
              <path class="cls-11" d="M23.22,36.85c-.38,0-.66-.13-.82-.38-.09-.14-.11-.32-.07-.67.02-.26.07-.64.14-1.12.31-2.27.96-7.01-.11-13.39-1.47-8.77-3.6-14.5-3.62-14.56-.04-.11-.02-.24.06-.33.06-.07.15-.1.24-.1.03,0,.05,0,.08,0,0,0,.24.06.51.06.14,0,.26-.02.36-.05.09-.03.2-.05.36-.05.25,0,.61.04,1.08.13.76.12,1.57.32,1.57.32.05.01.11.04.15.08.15.14,3.59,3.48,5.51,8.96,0,.02.22.77.52,1.96.55,2.22,1.5,6.48,1.7,10.05.25,4.64-.15,7.58-1.11,8.08-.38.19-.92.21-1.61.23-.25,0-.53.02-.82.03-.4.03-.93.07-1.48.2-.41.09-.78.18-1.11.26-.64.16-1.14.28-1.53.28h0Z"/>
              <path class="cls-13" d="M20.33,6.59c.25,0,.63.05,1.03.13.76.12,1.56.31,1.56.31,0,0,3.51,3.36,5.43,8.83,0,0,.21.75.51,1.93.59,2.37,1.5,6.5,1.69,9.99.29,5.26-.31,7.46-.94,7.78-.43.22-1.25.17-2.3.23-.47.03-.99.08-1.53.2-1.18.25-2.04.53-2.57.53-.26,0-.44-.07-.55-.23-.04-.07-.05-.22-.03-.47.12-1.59,1.32-6.86.03-14.6-1.49-8.9-3.64-14.62-3.64-14.62,0,0,.27.07.59.07.16,0,.32-.02.47-.07.05-.02.14-.03.24-.03M20.33,5.95c-.19,0-.34.02-.47.07-.03.01-.11.03-.24.03-.22,0-.42-.05-.43-.05-.05-.01-.11-.02-.16-.02-.18,0-.35.07-.47.21-.16.18-.21.43-.12.65.02.06,2.14,5.77,3.6,14.5,1.06,6.34.42,11.04.11,13.3-.07.48-.12.86-.14,1.15-.03.29-.04.6.12.86.15.24.47.53,1.08.53.42,0,.95-.13,1.61-.29.33-.08.69-.17,1.1-.26.54-.12,1.05-.17,1.44-.19.28-.02.55-.03.8-.03.73-.02,1.3-.04,1.74-.27,1.4-.73,1.47-4.96,1.28-8.38-.2-3.6-1.15-7.88-1.71-10.11-.3-1.2-.52-1.95-.52-1.95-1.96-5.59-5.46-8.98-5.61-9.12-.08-.08-.18-.13-.29-.16-.03,0-.83-.2-1.6-.32-.48-.09-.86-.13-1.13-.13h0Z"/>
            </g>
            <path class="cls-10" d="M22.67,36.3c.33.51,1.36.08,3.12-.3.54-.12,1.06-.17,1.53-.2.29-2.74.65-8.23-.23-14.05-.97-6.45-4.3-12.63-5.73-15.03-.55-.1-1.08-.17-1.27-.1-.44.17-1.06,0-1.06,0,0,0,2.14,5.71,3.64,14.62,1.49,8.9-.33,14.55,0,15.06Z"/>
            <path class="cls-1" d="M22.67,36.3c.33.51,1.36.08,3.12-.3.54-.12,1.06-.17,1.53-.2,1.05-.06,1.86,0,2.3-.23.62-.33,1.22-2.53.94-7.78-.19-3.49-1.1-7.63-1.69-9.99l-.72-.11s1.61,6.04,1.65,11.37c.04,5.33-.61,5.74-1.06,5.74s-1.33-.08-2.92.45c-1.55.52-1.96.84-3.17.59-.03.24-.02.4.03.47Z"/>
          </g>
          <g>
            <g>
              <path class="cls-5" d="M29.05,19.79c-.21,0-.4-.02-.57-.05-.13-.04-.23-.07-.29-.1-.26-.13-.62-.68-1.9-2.79-1.02-1.66-2.41-3.94-3.77-5.81-2.46-3.38-3.43-4.13-3.44-4.14-.13-.1-.16-.28-.08-.42l1.68-2.9s.07-.09.12-.12l1.06-.59s.1-.04.16-.04c.04,0,.07,0,.11.02,0,0,.22.08.61.23,1.44.56,5.12,2.13,8.16,4.5,3.62,2.81,5.75,5.13,5.7,6.22-.05.99-1.69,3.18-3.8,4.64l-.26.17c-1.6,1.03-2.87,1.19-3.48,1.19Z"/>
              <path class="cls-13" d="M22.02,3.14s.22.08.6.23c1.42.55,5.07,2.11,8.08,4.45,3.83,2.97,5.61,5.11,5.57,5.95-.04.83-1.55,2.93-3.67,4.39-.08.06-.17.11-.26.17-1.37.88-2.56,1.13-3.3,1.13-.2,0-.37-.02-.5-.05-.09-.03-.17-.05-.22-.08-.45-.22-3-5-5.55-8.5s-3.5-4.21-3.5-4.21l1.25-2.16.43-.75,1.06-.59M22.02,2.5c-.11,0-.22.03-.31.08l-1.06.59c-.1.06-.18.14-.24.24l-.43.75-1.25,2.16c-.16.28-.09.64.17.83,0,0,.95.76,3.37,4.07,1.35,1.86,2.74,4.13,3.75,5.79,1.39,2.28,1.69,2.74,2.03,2.91.08.04.19.08.33.12.23.05.44.07.68.07.65,0,1.98-.16,3.64-1.23l.14-.09.13-.09c2.04-1.41,3.88-3.69,3.94-4.88.08-1.65-3.61-4.78-5.82-6.49-3.07-2.39-6.79-3.97-8.24-4.54-.39-.16-.62-.24-.62-.24-.07-.02-.14-.04-.21-.04h0Z"/>
            </g>
            <path class="cls-6" d="M19.28,6.63s.95.71,3.5,4.21c2.55,3.5,5.11,8.28,5.55,8.5.43.22,2.02.28,4.02-1.01-2.35-6.29-10.13-12.55-11.82-13.86l-1.25,2.16Z"/>
            <path class="cls-1" d="M28.55,19.42c.62.13,2.06.04,3.8-1.08.08-.06.17-.11.26-.17,2.12-1.47,3.62-3.57,3.67-4.39.04-.84-1.75-2.98-5.57-5.95-3.01-2.34-6.66-3.9-8.08-4.45l-.08.38s6.98,3.92,10.16,6.93c3.17,3.02,2.9,3.45,1.63,5.16-1.17,1.57-3.82,2.82-5.78,3.58Z"/>
          </g>
          <g>
            <g>
              <path class="cls-4" d="M13.69,36.85c-.39,0-.89-.12-1.53-.28-.33-.08-.7-.17-1.11-.26-.55-.12-1.08-.17-1.49-.2-.29-.02-.56-.03-.81-.03-.69-.02-1.23-.04-1.61-.23-.96-.5-1.36-3.44-1.11-8.08.19-3.58,1.15-7.83,1.7-10.05.3-1.19.51-1.94.51-1.94,1.93-5.5,5.37-8.84,5.52-8.98.04-.04.09-.07.15-.08,0,0,.81-.2,1.58-.32.46-.09.83-.13,1.08-.13.15,0,.27.02.36.05.09.03.21.05.36.05.27,0,.5-.06.51-.06.03,0,.05,0,.08,0,.09,0,.18.04.24.1.08.09.1.21.06.33-.02.06-2.15,5.79-3.62,14.56-1.07,6.39-.42,11.12-.11,13.39.07.48.12.86.14,1.13.03.33.01.52-.07.66-.16.25-.44.38-.82.38Z"/>
              <path class="cls-13" d="M16.58,6.59c.1,0,.19,0,.24.03.15.06.31.07.47.07.31,0,.59-.07.59-.07,0,0-2.14,5.71-3.64,14.62-1.29,7.74-.1,13.01.03,14.6.03.24.02.4-.03.47-.11.17-.29.23-.55.23-.53,0-1.39-.28-2.57-.53-.54-.12-1.06-.17-1.53-.2-1.05-.06-1.86,0-2.3-.23-.62-.33-1.22-2.53-.94-7.78.19-3.49,1.1-7.63,1.69-9.99.3-1.19.51-1.93.51-1.93,1.92-5.47,5.43-8.83,5.43-8.83,0,0,.8-.19,1.56-.31.39-.07.77-.13,1.03-.13M16.58,5.95c-.27,0-.65.05-1.14.14-.76.12-1.56.31-1.59.32-.11.03-.21.08-.29.16-.15.14-3.65,3.53-5.59,9.08-.01.04-.22.79-.53,1.99-.55,2.23-1.51,6.51-1.71,10.12-.19,3.42-.12,7.65,1.28,8.38.44.23,1.02.25,1.75.27.25,0,.52.02.8.03.39.03.9.07,1.43.19.41.09.78.18,1.1.26.66.16,1.18.29,1.61.29.62,0,.93-.29,1.08-.53.16-.25.15-.57.12-.88-.02-.27-.07-.65-.14-1.13-.31-2.26-.95-6.96.11-13.3,1.46-8.73,3.58-14.44,3.6-14.5.08-.22.04-.48-.12-.65-.12-.14-.29-.21-.47-.21-.05,0-.11,0-.17.02h0s-.2.05-.42.05c-.14,0-.21-.02-.24-.03-.13-.05-.28-.07-.47-.07h0Z"/>
            </g>
            <path class="cls-7" d="M14.24,36.3c-.33.51-1.36.08-3.12-.3-.54-.12-1.06-.17-1.53-.2-.29-2.74-.65-8.23.23-14.05.97-6.45,4.3-12.63,5.73-15.03.55-.1,1.08-.17,1.27-.1.44.17,1.06,0,1.06,0,0,0-2.14,5.71-3.64,14.62-1.49,8.9.33,14.55,0,15.06Z"/>
            <path class="cls-1" d="M14.24,36.3c-.33.51-1.36.08-3.12-.3-.54-.12-1.06-.17-1.53-.2-1.05-.06-1.86,0-2.3-.23-.62-.33-1.22-2.53-.94-7.78.19-3.49,1.1-7.63,1.69-9.99l.72-.11s-1.61,6.04-1.65,11.37c-.04,5.33.61,5.74,1.06,5.74s1.33-.08,2.92.45c1.55.52,1.96.84,3.17.59.03.24.02.4-.03.47Z"/>
          </g>
          <g>
            <g>
              <path class="cls-3" d="M7.86,19.79c-.61,0-1.88-.15-3.47-1.18l-.26-.18c-2.11-1.46-3.75-3.66-3.8-4.64-.05-1.08,2.08-3.41,5.7-6.22,3.04-2.37,6.72-3.93,8.16-4.5.39-.16.61-.23.61-.23.03-.01.07-.02.11-.02.05,0,.11.01.16.04l1.06.59s.09.07.12.12l1.68,2.9c.08.14.04.32-.08.42,0,0-.97.76-3.44,4.14-1.36,1.87-2.75,4.15-3.77,5.81-1.29,2.11-1.64,2.66-1.9,2.79-.06.03-.16.07-.27.1-.18.04-.38.06-.59.06Z"/>
              <path class="cls-13" d="M14.89,3.14l1.06.59.43.75,1.25,2.16s-.95.71-3.5,4.21-5.11,8.28-5.55,8.5c-.05.03-.13.05-.22.08-.13.03-.3.05-.5.05-.74,0-1.93-.25-3.3-1.13-.08-.06-.17-.11-.26-.17-2.12-1.47-3.62-3.57-3.67-4.39-.04-.84,1.75-2.98,5.57-5.95,3.01-2.34,6.66-3.9,8.08-4.45.38-.15.6-.23.6-.23M14.89,2.5c-.07,0-.14.01-.21.04,0,0-.23.08-.62.24-1.45.57-5.16,2.15-8.24,4.54C3.62,9.03-.07,12.15,0,13.8c.06,1.2,1.91,3.48,3.94,4.89l.14.09.12.08c1.68,1.08,3.02,1.24,3.66,1.24.24,0,.45-.02.64-.06.18-.05.29-.09.37-.13.34-.17.64-.63,2.03-2.91,1.01-1.66,2.4-3.93,3.75-5.79,2.41-3.31,3.36-4.07,3.37-4.08.25-.2.32-.55.16-.83l-1.25-2.16-.43-.75c-.06-.1-.14-.18-.24-.24l-1.06-.59c-.1-.05-.2-.08-.31-.08h0Z"/>
            </g>
            <path class="cls-8" d="M17.63,6.63s-.95.71-3.5,4.21-5.11,8.28-5.55,8.5c-.43.22-2.02.28-4.02-1.01,2.35-6.29,10.13-12.55,11.82-13.86l1.25,2.16Z"/>
            <path class="cls-1" d="M8.36,19.42c-.62.13-2.06.04-3.8-1.08-.08-.06-.17-.11-.26-.17-2.12-1.47-3.62-3.57-3.67-4.39-.04-.84,1.75-2.98,5.57-5.95,3.01-2.34,6.66-3.9,8.08-4.45l.08.38s-6.98,3.92-10.16,6.93c-3.17,3.02-2.9,3.45-1.63,5.16,1.17,1.57,3.82,2.82,5.78,3.58Z"/>
          </g>
          <g>
            <path class="cls-2" d="M18.38,8.14s-.05,0-.08-.01c-.25-.02-.52-.12-.82-.3-1.33-.8-2.8-2.97-3.08-3.4-.06-.09-.08-.13-.11-.18-.57-.93-.76-1.85-.5-2.57.19-.56.64-.97,1.3-1.21.26-.09.54-.14.83-.14,1.09,0,2.06.68,2.48,1.03.43-.35,1.39-1.03,2.48-1.03.29,0,.57.05.83.14.62.22,1.04.59,1.26,1.1.25.58.2,1.3-.14,2.07,0,.01,0,.03-.01.04-.12.26-.26.52-.42.76-.29.43-.87,1.27-1.54,2.03-.97,1.09-1.75,1.64-2.38,1.68-.02,0-.07,0-.08,0Z"/>
            <path class="cls-13" d="M20.87.64c.24,0,.48.04.72.12,1.32.47,1.43,1.63.92,2.77h0c-.11.25-.24.49-.4.72-.38.57-.93,1.33-1.52,1.99-.76.85-1.58,1.56-2.2,1.58h0s0,0-.01,0c0,0,0,0-.01,0h0c-.22-.01-.47-.11-.74-.27-1.03-.62-2.28-2.25-2.98-3.3-.03-.05-.06-.1-.09-.15-.8-1.3-.92-2.79.62-3.34.24-.09.49-.12.73-.12,1.26,0,2.37,1.02,2.48,1.13.11-.11,1.22-1.13,2.48-1.13M20.87,0h0c-1.04,0-1.95.54-2.48.94-.52-.39-1.43-.94-2.48-.94-.32,0-.64.05-.94.16-.95.34-1.34.95-1.5,1.41-.28.81-.09,1.82.54,2.85.03.05.05.09.08.14,0,0,.03.04.03.05.29.44,1.8,2.66,3.18,3.5.34.2.65.32.94.35.04,0,.09.01.13.01,0,0,0,0,.01,0,0,0,0,0,.01,0,.04,0,.09,0,.13-.01.71-.07,1.55-.66,2.54-1.78.68-.76,1.28-1.62,1.57-2.06.17-.26.32-.53.45-.81,0-.02.02-.04.02-.06.37-.85.41-1.65.13-2.31-.17-.41-.57-.96-1.44-1.27-.3-.11-.62-.16-.94-.16h0Z"/>
          </g>
          <path class="cls-9" d="M22.52,3.53c-.11.24-.24.48-.4.71-.38.57-.93,1.33-1.52,1.99-.76.85-1.58,1.56-2.2,1.58h0s0,0-.01,0c0,0,0,0-.01,0h0c-.22-.01-.47-.11-.74-.27-1.03-.62-2.28-2.25-2.98-3.3-.03-.05-.06-.1-.09-.15.62.5,1.91,1.29,3.82,1.21,1.68-.06,3.2-1.03,4.13-1.78Z"/>
          <path class="cls-1" d="M22.12,4.25c-.38.57-.93,1.33-1.52,1.99.47-.8,1.38-2.44,1.37-3.46-.02-1.38-.75-1.6-1.82-1.35-1.07.26-1.77,1.13-1.77,1.13,0,0-1.42-1.56-2.84-1.22-1.42.34-.85,2.19,0,3.37.66.91,1.67,2.26,2.1,2.84-1.03-.62-2.28-2.25-2.98-3.3-.88-1.33-1.07-2.91.53-3.49,1.53-.54,3.07.88,3.2,1.01.13-.13,1.67-1.55,3.2-1.01,1.6.57,1.42,2.16.53,3.49Z"/>
        </g>
      </g>
    </g>
  </g>
</svg>